<?xml version="1.0" encoding="UTF-8"?>
<!-- Generator: Adobe Illustrator 23.0.2, SVG Export Plug-In . SVG Version: 6.00 Build 0)  -->
<svg version="1.1" xmlns="http://www.w3.org/2000/svg" xmlns:xlink="http://www.w3.org/1999/xlink" x="0px" y="0px" viewBox="0 0 600 153" style="enable-background:new 0 0 600 153;" xml:space="preserve">
<style type="text/css">
	.st0{fill:#282837;}
	.st1{fill:#FFFFFF;}
	.st2{fill:#FED200;}
</style>
<g id="Artwork">
	<g>
		<g>
			<g>
				<path class="st1" d="M289.5,113.2H251c0.5,9.3,7.9,16.2,16.9,16.2c5.9,0,11.3-3.1,14.3-8l4.4,1.9c-3.8,6.6-10.7,10.8-18.7,10.8      c-12.2,0-21.7-9.7-21.7-21.7s9.6-21.6,21.7-21.6c11.8,0,21.3,9.3,21.7,21.1L289.5,113.2z M251.4,109h32.9      c-1.5-7.8-8.1-13.5-16.3-13.5C259.6,95.5,252.9,101.2,251.4,109z"/>
				<path class="st1" d="M313.3,112.4L296,133.3h-6.3l17.3-20.9l-17.3-20.8h6.3L313.3,112.4z"/>
				<path class="st1" d="M330.8,112.4c0-12,9.7-21.6,21.7-21.6c7.3,0,13.8,3.5,17.7,9l-4.2,3.1c-3-4.3-7.8-7.1-13.5-7.1      c-9.3,0-16.6,7.3-16.6,16.6s7.3,16.6,16.6,16.6c5.7,0,10.6-2.8,13.5-7.1l4.2,3.1c-3.9,5.5-10.4,9-17.7,9      C340.5,134,330.8,124.4,330.8,112.4z"/>
				<path class="st1" d="M417,112.4c0-11.9,9.7-21.6,21.1-21.6c7.5,0,13.7,3.6,17.2,9.1v-8.3h5.1v41.7h-5.1V125      c-3.5,5.5-9.7,9.1-17.2,9.1C426.6,134.1,417,124.4,417,112.4z M455.3,112.4c0-9.2-7.4-16.6-16.6-16.6c-9.2,0-16.6,7.4-16.6,16.6      c0,9.2,7.4,16.7,16.6,16.7C448,129.1,455.3,121.7,455.3,112.4z"/>
				<path class="st1" d="M509.5,141l4.2-2.9c3,6.9,8.9,9.8,15.4,9.8c10,0,15.5-6.5,15.5-15.1v-8.7c-3.2,5.1-8.9,8.5-15.9,8.5      c-11.8,0-21.1-9.4-21.1-21.1s9.3-20.9,21.1-20.9c7.1,0,12.7,3.4,15.9,8.5v-7.8h5.2v41.3c0,11.1-7.6,20.1-20.6,20.1      C521.2,153,513.5,149.4,509.5,141z M544.7,111.7c0-8.8-7.2-16-16-16s-15.9,7.2-15.9,16c0,8.9,7.1,16,15.9,16      C537.5,127.8,544.7,120.6,544.7,111.7z"/>
				<path class="st1" d="M599.9,113.2h-38.5c0.5,9.3,7.9,16.2,16.9,16.2c5.9,0,11.3-3.1,14.3-8l4.4,1.9      c-3.8,6.6-10.7,10.8-18.7,10.8c-12.2,0-21.7-9.7-21.7-21.7s9.6-21.6,21.7-21.6c11.8,0,21.3,9.3,21.7,21.1L599.9,113.2z       M561.8,109h32.9c-1.5-7.8-8.1-13.5-16.3-13.5C570.1,95.5,563.4,101.2,561.8,109z"/>
				<g>
					<polygon class="st1" points="316.8,108.1 330.6,91.6 324.3,91.6 313.7,104.4      "/>
					<polygon class="st1" points="313.7,120.4 324.3,133.3 330.6,133.3 316.8,116.7      "/>
				</g>
				<path class="st1" d="M394.2,90.8c-4.6,0-8.6,2-11.5,5V75.6h-5.1v33.1v24.6h5.1v-25.8c0-6.6,5-11.8,11.5-11.8      c6.4,0,12.1,3.8,12.1,10.5v27.1h5v-27.2C411.2,96.8,403.6,90.8,394.2,90.8z"/>
				<path class="st1" d="M501.9,108.4v24.9h-5.1v-24.5c0-9-5.1-13.2-11.8-13.2s-11.9,4.6-12,12.8v24.9h-5.1V91.6h5.1V98      c2.6-4.6,7-7.2,12.6-7.2C494.6,90.8,501.9,97,501.9,108.4z"/>
			</g>
			<g>
				<path class="st2" d="M246.2,43.4c0-13.5,10.6-23.3,24.6-23.3c7.9,0,14.8,3.2,19.2,8.4l-8.6,7.3c-2.3-3.3-6.1-5.3-10.6-5.3      c-7.3,0-12.9,5.3-12.9,12.9c0,7.6,5.6,12.9,12.9,12.9c4.5,0,8.3-2,10.6-5.3l8.6,7.3c-4.4,5.2-11.3,8.4-19.2,8.4      C256.8,66.7,246.2,56.9,246.2,43.4z"/>
				<path class="st2" d="M292.8,43.4c0-13.5,10.6-23.3,24.6-23.3c13.9,0,24.6,9.8,24.6,23.3c0,13.5-10.7,23.3-24.6,23.3      C303.4,66.8,292.8,57,292.8,43.4z M330.3,43.4c0-7.5-5.8-12.9-13-12.9c-7.2,0-12.9,5.3-12.9,12.9c0,7.7,5.7,12.9,12.9,12.9      C324.5,56.4,330.3,51,330.3,43.4z"/>
				<path class="st2" d="M348.7,49.3V21h12.1v27.6c0,5.4,3.7,7.9,8.6,7.9c5,0,8.7-2.5,8.7-7.9V21h12.1v28.3      c0,10.8-7.7,17.4-20.8,17.4C356.4,66.8,348.7,60.2,348.7,49.3z"/>
				<path class="st2" d="M424.8,20.6v11.5c-9.4,0-14.9,3.4-14.9,12.3v21.5h-12.1V21h11.5v8.6C411.7,25.5,417,21,424.8,20.6z"/>
				<path class="st2" d="M430.3,6.9c0-3.9,3.2-6.9,7-6.9c3.8,0,7,3.1,7,6.9c0,3.9-3.2,7-7,7C433.5,13.9,430.3,10.8,430.3,6.9z       M431.3,21h12v44.9h-12V21z"/>
				<path class="st2" d="M497.8,45.4h-35c0.5,7.4,5.8,11.8,12.3,11.8c4.6,0,8.8-2.2,11.1-6.2l9.6,4c-3.6,7.3-11.1,11.8-20.7,11.8      c-14.5,0-24.3-10.3-24.3-23.3c0-13,10-23.4,23.8-23.4c12.9,0,22.9,9.1,23.1,22.9L497.8,45.4z M463.2,38h22.6      c-0.9-5.6-5.2-9-10.9-9C469.1,29,464.6,32.4,463.2,38z"/>
				<path class="st2" d="M532.4,20.6v11.5c-9.4,0-14.9,3.4-14.9,12.3v21.5h-12.1V21h11.5v8.6C519.3,25.5,524.6,21,532.4,20.6z"/>
			</g>
		</g>
		<g>
			<g>
				<polygon class="st2" points="110.4,132.3 156.5,76.5 110.4,20.9 131,20.9 177.1,76.5 130.9,132.3     "/>
				<g>
					<polygon class="st1" points="186.2,87.6 176,99.9 202.8,132.3 223.3,132.3      "/>
					<polygon class="st1" points="186.2,65.5 223.3,20.9 202.8,20.9 176,53.2      "/>
				</g>
			</g>
			<path class="st1" d="M58,134.2c-15.5,0-30.1-6-41-16.8C6,106.6,0,92.1,0,76.6c0-15.5,6-30,16.9-40.8C27.8,25,42.4,19,58,19     c18.7,0,36.4,9,47.2,24l0.9,1.3l-13.5,9.9l-1-1.4c-7.8-11.2-20-17.7-33.7-17.7c-23.2,0-41.4,18.2-41.4,41.4     C16.5,99.8,34.7,118,58,118c13.7,0,26-6.4,33.7-17.7l1-1.4l13.5,9.9l-0.9,1.3C94.4,125.2,76.7,134.2,58,134.2z"/>
		</g>
	</g>
</g>
</svg>